PathFileType	4	(X/Y/Z)	9_coords_data.trc
DataRate	CameraRate	NumFrames	NumMarkers	Units	OrigDataRate	OrigDataStartFrame	OrigNumFrames
30.0	30.0	4	21	m	30.0	1	47
Frame#	Time	THUMB_TIP	THUMB_IP	THUMB_MCP	THUMB_CMC	INDEX_TIP	INDEX_DIP	INDEX_PIP	INDEX_MCP	MIDDLE_TIP	MIDDLE_DIP	MIDDLE_PIP	MIDDLE_MCP	RING_TIP	RING_DIP	RING_PIP	RING_MCP	PINKY_TIP	PINKY_DIP	PINKY_PIP	PINKY_MCP	WRIST
X1	Y1	Z1	X2	Y2	Z2	X3	Y3	Z3	X4	Y4	Z4	X5	Y5	Z5	X6	Y6	Z6	X7	Y7	Z7	X8	Y8	Z8	X9	Y9	Z9	X10	Y10	Z10	X11	Y11	Z11	X12	Y12	Z12	X13	Y13	Z13	X14	Y14	Z14	X15	Y15	Z15	X16	Y16	Z16	X17	Y17	Z17	X18	Y18	Z18	X19	Y19	Z19	X20	Y20	Z20	X21	Y21	Z21
0	0.0	0.001564280033111572	-0.1161709976196289	0.9931069946289063	0.00867282009124756	-0.09117469787597657	1.003030029296875	0.006512179851531983	-0.06575460052490234	1.019989990234375	0.003862970113754272	-0.0327322998046875	1.0401300048828126	0.013865300178527832	-0.05862129974365234	0.895708984375	0.016512399673461915	-0.054075698852539066	0.9204169921875	0.016230300903320314	-0.049999401092529296	0.9414409790039062	0.01570450019836426	-0.03995949935913086	0.9786829833984375	0.006028160095214844	-0.012339699745178222	0.8804769897460938	0.013480299949645997	-0.01513659954071045	0.9052020263671875	0.012671199798583985	-0.015899700164794923	0.9368740234375	0.013884599685668946	-0.017295000076293945	0.9769669799804688	0.014417499542236327	0.02575309944152832	0.8966669921875	0.015200300216674805	0.02105500030517578	0.9220850219726563	0.013162300109863282	0.014364899635314942	0.947801025390625	0.014749600410461425	0.005189990043640137	0.9874110107421875	0.03946440124511719	0.07257060241699219	0.958458984375	0.034037300109863285	0.05986420059204101	0.9720540161132812	0.02535919952392578	0.046245800018310544	0.9834010009765625	0.01572309970855713	0.025291299819946288	1.0009400024414064	-0.02660639953613281	-0.014881899833679199	1.0553199462890626
1	0.03333333333333333	0.00211909008026123	-0.11704100036621094	0.9936300048828125	0.00895734977722168	-0.09273390197753906	1.003030029296875	0.006085629940032959	-0.06839569854736328	1.0210499877929688	0.002540080070495605	-0.03680659866333008	1.0396099853515626	0.014925900459289551	-0.05971540069580078	0.8966229858398438	0.017193599700927733	-0.05515639877319336	0.9194329833984375	0.01632789993286133	-0.05013159942626953	0.9418159790039062	0.015025300025939941	-0.04089739990234375	0.9811859741210938	0.007354629993438721	-0.014114000320434571	0.8817059936523437	0.012581700325012208	-0.017205400466918944	0.9070189819335938	0.012626999855041504	-0.01800550079345703	0.9376320190429688	0.013522299766540527	-0.018091499328613283	0.9793280029296875	0.014608200073242188	0.02339669990539551	0.8972020263671875	0.015924699783325197	0.01897960090637207	0.92222802734375	0.014011099815368652	0.012634599685668945	0.9495380249023437	0.015441800117492676	0.003225500106811523	0.9869920043945313	0.04006380081176758	0.07087950134277343	0.9582890014648437	0.03308150100708008	0.05753260040283203	0.9724340209960938	0.02525709915161133	0.044966098785400394	0.98410400390625	0.01596749973297119	0.022734100341796876	1.00127001953125	-0.02601020050048828	-0.014124899864196778	1.06043994140625
2	0.06666666666666667	0.0029878699779510498	-0.11792600250244141	0.9938839721679688	0.009688480377197266	-0.09357579803466796	1.003260009765625	0.006747620105743408	-0.0692061996459961	1.0212999877929687	0.003061439990997314	-0.037494400024414065	1.03968994140625	0.015723899841308595	-0.06083599853515625	0.896739013671875	0.017853599548339844	-0.05616519927978516	0.9195570068359376	0.016871999740600586	-0.05109469985961914	0.9419199829101562	0.015596799850463867	-0.04176549911499024	0.9811599731445313	0.00799666976928711	-0.015290300369262695	0.88175	0.013123000144958496	-0.018253599166870117	0.907031982421875	0.01315060043334961	-0.01899810028076172	0.9375889892578125	0.013946599960327148	-0.018963800430297852	0.9793619995117188	0.014963600158691406	0.02231920051574707	0.89714697265625	0.016249000549316408	0.01794860076904297	0.9221740112304687	0.014185000419616699	0.011628199577331542	0.9495349731445313	0.01577810001373291	0.002355629920959472	0.9869010009765625	0.04029389953613281	0.07007779693603515	0.9583369750976563	0.033290298461914065	0.05673429870605469	0.9724140014648438	0.02551919937133789	0.04411909866333008	0.9840479736328125	0.01614590072631836	0.021921300888061525	1.0013699951171875	-0.025480899810791015	-0.015040599822998046	1.0603599853515624
3	0.1	0.003639739990234375	-0.1185260009765625	0.99402099609375	0.010316699981689452	-0.09412349700927734	1.0033099975585937	0.007206620216369629	-0.06971779632568359	1.0214299926757813	0.003551909923553467	-0.03797299957275391	1.0396500244140625	0.01662190055847168	-0.061549800872802735	0.8967960205078125	0.018670000076293946	-0.05685110092163086	0.919625	0.01764500045776367	-0.05176570129394531	0.9419509887695312	0.01614459991455078	-0.042358299255371094	0.9811430053710938	0.008731459617614746	-0.016034599304199218	0.8816649780273438	0.013808500289916993	-0.018986900329589843	0.907093017578125	0.013782899856567382	-0.019589000701904297	0.937625	0.014443499565124512	-0.019515800476074218	0.9794030151367188	0.015653400421142577	0.021605400085449217	0.8970770263671874	0.01686779975891113	0.017284900665283202	0.9221309814453125	0.014777700424194335	0.011021100044250488	0.949469970703125	0.016291000366210937	0.0018141499757766718	0.9869169921875	0.04083530044555664	0.069518798828125	0.9582960205078125	0.033784698486328125	0.05617689895629883	0.9723469848632813	0.025981800079345703	0.043559501647949216	0.9839929809570312	0.016592500686645507	0.021341800689697266	1.0011599731445313	-0.025146900177001955	-0.01555150032043457	1.0603199462890625
